<svg xmlns="http://www.w3.org/2000/svg" xmlns:xlink="http://www.w3.org/1999/xlink" width="278.135" height="71.839" viewBox="0 0 278.135 71.839">
  <defs>
    <clipPath id="clip-path">
      <rect id="Rectangle_65" data-name="Rectangle 65" width="278.135" height="71.839" transform="translate(0 0)" fill="none"/>
    </clipPath>
  </defs>
  <g id="Group_28" data-name="Group 28" transform="translate(0 0)">
    <rect id="Rectangle_53" data-name="Rectangle 53" width="21.93" height="30.301" transform="translate(68.941 17.164)" fill="#fff"/>
    <rect id="Rectangle_54" data-name="Rectangle 54" width="21.93" height="30.301" transform="translate(106.418 17.164)" fill="#fff"/>
    <rect id="Rectangle_55" data-name="Rectangle 55" width="21.93" height="30.301" transform="translate(155.656 17.164)" fill="#fff"/>
    <rect id="Rectangle_56" data-name="Rectangle 56" width="21.93" height="29.206" transform="translate(32.015 17.165)" fill="#fff"/>
    <path id="Path_439" data-name="Path 439" d="M235.9,44.216l-5.093,2.155H192.336l-1.414-.783-1.955-.989V21.241h50.352L238.068,33.68l-1.182-1.892Z" fill="#fff"/>
    <g id="Group_27" data-name="Group 27">
      <g id="Group_26" data-name="Group 26" clip-path="url(#clip-path)">
        <path id="Path_440" data-name="Path 440" d="M128.348,12.85a4.314,4.314,0,0,0-4.314,4.314c0,.013,0,.024,0,.036V28.214c0,.013,0,.024,0,.036s0,.024,0,.036v4.279a7,7,0,0,1-.579,2.841,7.88,7.88,0,0,1-1.57,2.342,7.339,7.339,0,0,1-2.3,1.592,7.224,7.224,0,0,1-5.664,0A7.617,7.617,0,0,1,110,35.406a7.013,7.013,0,0,1-.579-2.841V28.291c0-.014,0-.027,0-.041s0-.027,0-.041v-11c0-.014,0-.027,0-.041a4.314,4.314,0,0,0-8.628,0v15.4a15.73,15.73,0,0,0,1.245,6.232,16.029,16.029,0,0,0,8.462,8.5,16.1,16.1,0,0,0,12.425,0,15.96,15.96,0,0,0,8.488-8.5,15.741,15.741,0,0,0,1.246-6.232v-15.4a4.314,4.314,0,0,0-4.314-4.314" fill="#fff"/>
        <path id="Path_441" data-name="Path 441" d="M116.705,51.616a18.564,18.564,0,0,1-7.421-1.5A19.09,19.09,0,0,1,99.217,40.005a18.8,18.8,0,0,1-1.492-7.44v-15.4h0a7.385,7.385,0,1,1,14.769,0c0,.049,0,.1,0,.154V28.1c0,.052,0,.1,0,.154s0,.108,0,.162v4.152a3.976,3.976,0,0,0,.32,1.608,4.553,4.553,0,0,0,2.349,2.358,4.169,4.169,0,0,0,3.183,0,4.274,4.274,0,0,0,1.347-.928,4.792,4.792,0,0,0,.957-1.432,3.97,3.97,0,0,0,.321-1.608V28.4c0-.05,0-.1,0-.146s0-.1,0-.154V17.311c0-.05,0-.1,0-.146a7.384,7.384,0,1,1,14.769,0v15.4a18.8,18.8,0,0,1-1.493,7.44,19.029,19.029,0,0,1-10.1,10.115,18.744,18.744,0,0,1-7.435,1.5M103.866,17.138V32.565a12.687,12.687,0,0,0,1,5.024,12.955,12.955,0,0,0,6.861,6.892,12.463,12.463,0,0,0,4.981,1,12.632,12.632,0,0,0,5.013-1,12.9,12.9,0,0,0,6.875-6.887,12.69,12.69,0,0,0,1-5.025V17.157a1.244,1.244,0,0,0-2.486-.061V32.565a10.061,10.061,0,0,1-.84,4.079,10.942,10.942,0,0,1-2.182,3.248,10.4,10.4,0,0,1-3.263,2.258,10.229,10.229,0,0,1-8.145,0,10.705,10.705,0,0,1-5.491-5.507,10.077,10.077,0,0,1-.838-4.077V17.206q0-.055,0-.111a1.244,1.244,0,0,0-2.486.043m2.52,11.554v0m0,0v0m0,0v0m0,0h0m20.687-.869Zm5.59-10.647h0Z" fill="#fff"/>
        <path id="Path_442" data-name="Path 442" d="M216.174,16.161a16.176,16.176,0,0,0-5.048-3.42,15.52,15.52,0,0,0-6.2-1.248A15.686,15.686,0,0,0,198.7,12.74a15.96,15.96,0,0,0-8.488,8.5,15.743,15.743,0,0,0-1.247,6.233l-.08,35.619h0l0,1.325h0c0,.013,0,.024,0,.037a4.315,4.315,0,0,0,8.629,0c0-.014,0-.031,0-.045l.079-32.579c0-.015,0-.028,0-.043s0-.027,0-.041v-.2l-.009-.008.009-4.06a7.035,7.035,0,0,1,.579-2.842,7.9,7.9,0,0,1,1.571-2.342,7.327,7.327,0,0,1,2.3-1.592,7.224,7.224,0,0,1,5.664,0,7.62,7.62,0,0,1,3.92,3.934,7.019,7.019,0,0,1,.58,2.842v4.274c0,.013,0,.026,0,.04s0,.027,0,.04V44.192c0,.013,0,.026,0,.04a4.315,4.315,0,0,0,8.629,0c0-.013,0-.024,0-.037h0V27.474a15.753,15.753,0,0,0-1.246-6.233,16.1,16.1,0,0,0-3.415-5.08" fill="#fff"/>
        <path id="Path_443" data-name="Path 443" d="M193.2,71.839a7.393,7.393,0,0,1-7.385-7.384v-.044l0-1.184c0-.046,0-.093,0-.14l.081-35.62a18.788,18.788,0,0,1,1.493-7.433,19.036,19.036,0,0,1,10.1-10.115,19.163,19.163,0,0,1,14.855,0,19.1,19.1,0,0,1,10.067,10.111,18.8,18.8,0,0,1,1.492,7.44V44.232a7.385,7.385,0,1,1-14.769,0c0-.048,0-.1,0-.15V31.938c0-.051,0-.1,0-.15s0-.1,0-.158V27.474a3.976,3.976,0,0,0-.32-1.608,4.551,4.551,0,0,0-2.349-2.359,4.178,4.178,0,0,0-3.183,0,4.3,4.3,0,0,0-1.347.928,4.81,4.81,0,0,0-.957,1.432,3.967,3.967,0,0,0-.321,1.608l-.008,3.838c.006.078.009.158.008.237v.09c0,.051,0,.1,0,.149s0,.118-.005.176l-.079,32.355c0,.047,0,.093,0,.136a7.393,7.393,0,0,1-7.385,7.384m-1.242-7.317a1.244,1.244,0,0,0,2.484-.006c0-.02,0-.04,0-.059s0-.036,0-.054l.08-32.579v-.058c-.006-.079-.009-.159-.009-.239l.009-4.06a10.051,10.051,0,0,1,.84-4.071,10.923,10.923,0,0,1,2.183-3.25,10.4,10.4,0,0,1,3.262-2.257,10.233,10.233,0,0,1,8.145,0,10.7,10.7,0,0,1,5.491,5.507,10.077,10.077,0,0,1,.838,4.077v4.274c0,.013,0,.027,0,.04s0,.027,0,.041V44.192c0,.035,0,.071,0,.108a1.244,1.244,0,0,0,2.484,0c0-.035,0-.069,0-.1,0-.051,0-.1,0-.152V27.474a12.693,12.693,0,0,0-1-5.025A13.069,13.069,0,0,0,214,18.331h0a13.126,13.126,0,0,0-4.1-2.772,12.471,12.471,0,0,0-4.982-.995,12.653,12.653,0,0,0-5.013,1,12.9,12.9,0,0,0-6.875,6.886,12.7,12.7,0,0,0-1,5.026l-.081,35.485c0,.048,0,.1,0,.142l0,1.173c0,.048,0,.1,0,.144s0,.069,0,.1m5.553-.112h0Zm-2.956-32.2v0m0,0h0m0,0h0m3.037-.463h0Zm17.655-.371h0m0,0v0m0,0v0m0-.007v0" fill="#fff"/>
        <path id="Path_444" data-name="Path 444" d="M92.42,17.763a18.553,18.553,0,0,0-5.663-3.822,17.778,17.778,0,0,0-13.9,0,18.441,18.441,0,0,0-5.688,3.822,18.008,18.008,0,0,0-3.844,5.674,17.329,17.329,0,0,0-1.367,6.056h-.042v.873c0,.014,0,.028,0,.042V64.236h.008c0,.025-.008.048-.008.073a4.315,4.315,0,0,0,8.629,0c0-.025-.007-.048-.007-.073h0V33.848c0-.013,0-.026,0-.04l0-.021V30.366a9.1,9.1,0,0,1,.725-3.564,9.28,9.28,0,0,1,12.144-4.927,9.409,9.409,0,0,1,2.937,1.976A9.31,9.31,0,0,1,88.324,26.8a9.307,9.307,0,0,1,0,7.212,9.191,9.191,0,0,1-4.91,4.927c-.993.43-4.222.51-5.328.556a4.3,4.3,0,0,0-.255,8.6.108.108,0,0,0,0,.018,13.8,13.8,0,0,0,1.985.173,17.216,17.216,0,0,0,6.939-1.415,18.18,18.18,0,0,0,9.506-9.519,17.274,17.274,0,0,0,1.413-6.948,17.467,17.467,0,0,0-1.412-6.971,18.008,18.008,0,0,0-3.844-5.674" fill="#fff"/>
        <path id="Path_445" data-name="Path 445" d="M66.227,71.693a7.393,7.393,0,0,1-7.385-7.385v-33.9c0-.034,0-.073,0-.112v-.8a3.086,3.086,0,0,1,.08-.7,20.28,20.28,0,0,1,1.582-6.576,21.085,21.085,0,0,1,4.5-6.637,21.539,21.539,0,0,1,6.629-4.459,20.85,20.85,0,0,1,16.35,0,21.647,21.647,0,0,1,6.6,4.456,21.064,21.064,0,0,1,4.5,6.636,20.913,20.913,0,0,1,0,16.364A21.254,21.254,0,0,1,87.986,49.689a20.281,20.281,0,0,1-8.168,1.671c-.042,0-.084,0-.127,0a16.89,16.89,0,0,1-2.363-.212l-.1-.02a7.352,7.352,0,0,1-3.617-1.464V64.146c0,.05,0,.1,0,.162a7.393,7.393,0,0,1-7.385,7.385m-1.241-7.3a1.244,1.244,0,0,0,2.482,0c0-.035,0-.07,0-.105,0-.064,0-.128,0-.191V33.8c0-.021,0-.043,0-.065v-3.37a12.175,12.175,0,0,1,.972-4.771,12.322,12.322,0,0,1,22.707,0,12.374,12.374,0,0,1,0,9.624,12.268,12.268,0,0,1-6.516,6.54c-1.19.515-3.121.679-6.052.79l-.366.014-.128,0a1.234,1.234,0,0,0-.073,2.467,3.152,3.152,0,0,1,.612.1c.249.034.564.058,1.253.088a14.185,14.185,0,0,0,5.649-1.158,15.119,15.119,0,0,0,7.92-7.933,14.226,14.226,0,0,0,1.157-5.721,14.394,14.394,0,0,0-1.161-5.753,14.936,14.936,0,0,0-3.186-4.712h0a15.465,15.465,0,0,0-4.731-3.189A14.187,14.187,0,0,0,79.818,15.6a14.348,14.348,0,0,0-5.741,1.162,15.379,15.379,0,0,0-4.747,3.185,14.95,14.95,0,0,0-3.187,4.712,14.3,14.3,0,0,0-1.119,4.989,3.011,3.011,0,0,1-.039.359v.409c0,.02,0,.042,0,.066v33.55c.006.078.008.157.007.236,0,.04,0,.084,0,.129m-.033.332h0m5.581-.489h0Zm3.073-30.274v3.982a7.351,7.351,0,0,1,4.414-1.518l.33-.013a23.435,23.435,0,0,0,3.913-.319A6.119,6.119,0,0,0,85.5,32.807a6.238,6.238,0,0,0,0-4.8,6.26,6.26,0,0,0-1.325-1.986,6.365,6.365,0,0,0-1.987-1.331,6.168,6.168,0,0,0-8.1,3.316,6.037,6.037,0,0,0-.478,2.37V33.7c0,.036,0,.072,0,.107s0,.1,0,.155m8.6,2.157-.01,0,.01,0M67.5,34.242v0" fill="#fff"/>
        <path id="Path_446" data-name="Path 446" d="M145.761,7.384l0-.02V7.251h-.011a4.3,4.3,0,0,0-8.6,0h-.011v.113l0,.02,0,.02V44.195l0,.02a4.314,4.314,0,1,0,8.628,0l0-.02V7.4l0-.02" fill="#fff"/>
        <path id="Path_447" data-name="Path 447" d="M141.447,51.6a7.393,7.393,0,0,1-7.385-7.384c0-.036,0-.071,0-.107V7.491c0-.036,0-.072,0-.107s0-.071,0-.108V7.251a3.049,3.049,0,0,1,.032-.44,7.373,7.373,0,0,1,14.7,0,3.14,3.14,0,0,1,.03.436v.02c0,.038,0,.076,0,.113s0,.075,0,.113V44.1c0,.038,0,.076,0,.113a7.393,7.393,0,0,1-7.385,7.384M140.2,44.267a1.244,1.244,0,0,0,2.486,0c0-.025,0-.05,0-.075V7.515c0-.056-.009-.112-.01-.169a1.232,1.232,0,0,0-2.464,0c0,.056,0,.112-.01.169V44.2c0,.024,0,.048,0,.071m5.555-.071h0Zm0-36.8h0Zm0-.031h0Z" fill="#fff"/>
        <path id="Path_448" data-name="Path 448" d="M244.151,13.963l1.346-.814H233.524V7.4l0-.02,0-.02V7.251h-.011a4.3,4.3,0,0,0-8.6,0H224.9v.113l0,.02,0,.02V17.441l0,.02,0,.02V44.195l0,.021a4.314,4.314,0,0,0,8.628,0l0-.021V21.771l3.442,0,.123-.236a19.489,19.489,0,0,1,3.021-4.277,18.769,18.769,0,0,1,4.041-3.3" fill="#fff"/>
        <path id="Path_449" data-name="Path 449" d="M229.213,51.6a7.393,7.393,0,0,1-7.385-7.384c0-.035,0-.071,0-.107V17.569c0-.037,0-.072,0-.108s0-.071,0-.107V7.492c0-.036,0-.072,0-.107s0-.072,0-.108V7.252a3.189,3.189,0,0,1,.031-.44,7.373,7.373,0,0,1,14.7,0,2.982,2.982,0,0,1,.031.436v.019c0,.039,0,.076,0,.114s0,.074,0,.113v2.581h8.9a3.07,3.07,0,0,1,1.588,5.7l-1.346.814a15.685,15.685,0,0,0-3.38,2.76,16.405,16.405,0,0,0-2.546,3.6l-.123.236a3.07,3.07,0,0,1-2.725,1.655H236.6V44.1c0,.038,0,.076,0,.113a7.392,7.392,0,0,1-7.384,7.384m-1.243-7.332a1.244,1.244,0,0,0,2.485,0c0-.025,0-.05,0-.075V21.771a3.071,3.071,0,0,1,3.071-3.07h1.645a22.936,22.936,0,0,1,1.774-2.482h-3.417a3.073,3.073,0,0,1-3.073-3.07V7.516c0-.056-.008-.112-.01-.169a1.232,1.232,0,0,0-2.463,0c0,.057-.005.113-.01.169V44.2c0,.024,0,.048,0,.072" fill="#fff"/>
        <path id="Path_450" data-name="Path 450" d="M42.98,13.348a12.791,12.791,0,0,0-4.689,1.191,17.731,17.731,0,0,0-9.51,9.474,17.288,17.288,0,0,0-1.323,5.294,4.3,4.3,0,0,0-.082.808c0,.1.023.187.029.282-.006.2-.029.389-.029.587V44.6a4.315,4.315,0,0,0,8.629,0c0-.014,0-.027,0-.041V30.984a8.954,8.954,0,0,1,.725-3.581,9.161,9.161,0,0,1,2-2.927A9.68,9.68,0,0,1,41.677,22.5a9.223,9.223,0,0,1,1.72-.542v-.021a4.3,4.3,0,0,0-.416-8.587" fill="#fff"/>
        <path id="Path_451" data-name="Path 451" d="M31.691,51.983A7.393,7.393,0,0,1,24.306,44.6V30.984c0-.167.008-.332.019-.5a3.611,3.611,0,0,1-.019-.373,7.19,7.19,0,0,1,.107-1.223A20.351,20.351,0,0,1,25.961,22.8,20.789,20.789,0,0,1,37.069,11.722a15.727,15.727,0,0,1,5.911-1.444,7.373,7.373,0,0,1,1.174,14.654c-.042.011-.085.021-.129.029a6.357,6.357,0,0,0-1.005.3c-.039.019-.083.04-.124.057a6.621,6.621,0,0,0-2.022,1.35,6.125,6.125,0,0,0-1.33,1.956,5.9,5.9,0,0,0-.473,2.362V44.445c0,.052.005.1.005.154a7.393,7.393,0,0,1-7.385,7.384M30.453,30.019c.007.062.012.122.016.182.006.1.008.194.005.292,0,.118-.011.236-.019.353,0,.047-.007.094-.008.142V44.6a1.244,1.244,0,0,0,2.486.07q0-.057,0-.111V30.984a12,12,0,0,1,.978-4.8,12.231,12.231,0,0,1,2.663-3.9A12.714,12.714,0,0,1,40.4,19.7a10.969,10.969,0,0,1,1.969-.663,3,3,0,0,1,.727-.162,1.23,1.23,0,0,0,1.125-1.217A1.244,1.244,0,0,0,43,16.419a10.376,10.376,0,0,0-3.47.928l-.041.018A14.651,14.651,0,0,0,31.6,25.227a14.235,14.235,0,0,0-1.086,4.356,2.989,2.989,0,0,1-.042.3c-.009.051-.016.1-.021.139m7.838-15.48h0Z" fill="#fff"/>
        <path id="Path_452" data-name="Path 452" d="M57.771,17.483a4.315,4.315,0,0,0-8.629,0l0,.02V44.195l0,.02a4.315,4.315,0,1,0,8.629,0l0-.02V17.5l0-.021" fill="#fff"/>
        <path id="Path_453" data-name="Path 453" d="M53.457,51.6a7.393,7.393,0,0,1-7.385-7.384c0-.035,0-.071,0-.107V17.591c0-.036,0-.072,0-.107a7.385,7.385,0,0,1,14.77,0c0,.037,0,.075,0,.112V44.1c0,.038,0,.076,0,.113A7.393,7.393,0,0,1,53.457,51.6m-1.243-7.332a1.244,1.244,0,0,0,2.486,0c0-.025,0-.051,0-.076V17.5c0-.026,0-.051,0-.077a1.244,1.244,0,0,0-2.486,0c0,.024,0,.048,0,.072V44.2c0,.024,0,.048,0,.072m5.555-.073h0Zm0-26.7h0Z" fill="#fff"/>
        <path id="Path_454" data-name="Path 454" d="M53.482,3.07a4.29,4.29,0,1,0,4.289,4.29,4.29,4.29,0,0,0-4.289-4.29" fill="#fff"/>
        <path id="Path_455" data-name="Path 455" d="M53.482,14.719a7.36,7.36,0,1,1,7.36-7.36,7.369,7.369,0,0,1-7.36,7.36m0-8.579A1.219,1.219,0,1,0,54.7,7.359,1.221,1.221,0,0,0,53.482,6.14" fill="#fff"/>
        <path id="Path_456" data-name="Path 456" d="M275.064,30.089a13.259,13.259,0,0,0-.639-4.126,17.925,17.925,0,0,0-9.57-11.42,17.826,17.826,0,0,0-14.625-.317,18.3,18.3,0,0,0-5.681,3.823,18.007,18.007,0,0,0-3.825,5.674,17.937,17.937,0,0,0,0,13.918,18.359,18.359,0,0,0,3.824,5.672,18.1,18.1,0,0,0,5.682,3.848,17.42,17.42,0,0,0,6.971,1.414c.658,0,1.717-.086,2.37-.158v-.026a4.305,4.305,0,0,0-.256-8.6,4.2,4.2,0,0,0-.647.066c-.016,0-.034-.014-.049-.012-.349.041-1.054.109-1.417.109a9.151,9.151,0,0,1-3.7-.745,8.973,8.973,0,0,1-2.923-2.034,9.893,9.893,0,0,1-1.935-2.952,8.89,8.89,0,0,1-.7-3.5,9.177,9.177,0,0,1,.7-3.576A9.3,9.3,0,0,1,250.6,24.2a9.479,9.479,0,0,1,2.931-2.017,9.3,9.3,0,0,1,8.522.636,9.6,9.6,0,0,1,2.974,2.946h0a.178.178,0,0,1,.012.024H256.2c-.04,0-.078-.012-.119-.012s-.079.011-.12.012h-.181v.018a4.293,4.293,0,0,0,0,8.568v.039h15.5c-.006-.02-.01-.042-.016-.061a4.3,4.3,0,0,0,3.795-4.262" fill="#fff"/>
        <path id="Path_457" data-name="Path 457" d="M257.2,51.646a20.477,20.477,0,0,1-8.191-1.667,21.136,21.136,0,0,1-6.64-4.5,21.4,21.4,0,0,1-4.463-6.616,21,21,0,0,1,0-16.351,21.046,21.046,0,0,1,4.48-6.637,21.383,21.383,0,0,1,6.626-4.465,20.911,20.911,0,0,1,17.188.372,21,21,0,0,1,11.181,13.342,16.141,16.141,0,0,1,.753,4.826q0,.071,0,.141a7.377,7.377,0,0,1-5.7,7.168,3.065,3.065,0,0,1-1.154.225h-8.7a7.372,7.372,0,0,1-2.318,13.925,3.168,3.168,0,0,1-.355.061c-.591.066-1.827.177-2.71.177m0-35.764a14.392,14.392,0,0,0-5.751,1.162,15.272,15.272,0,0,0-4.734,3.181,14.953,14.953,0,0,0-3.172,4.713,14.484,14.484,0,0,0-1.155,5.756,14.315,14.315,0,0,0,1.152,5.726,15.314,15.314,0,0,0,3.184,4.729,15.036,15.036,0,0,0,4.725,3.2,14.371,14.371,0,0,0,5.751,1.162c.4,0,1.086-.048,1.661-.1a3.119,3.119,0,0,1,.525-.077,1.235,1.235,0,0,0-.073-2.468l-.172.029a3.2,3.2,0,0,1-.451.035c-.371.039-1.027.1-1.49.1a12.184,12.184,0,0,1-4.932-1,12.028,12.028,0,0,1-3.916-2.731,12.957,12.957,0,0,1-2.533-3.865,11.922,11.922,0,0,1-.947-4.7,12.289,12.289,0,0,1,3.537-8.674,12.541,12.541,0,0,1,3.872-2.668,12.361,12.361,0,0,1,11.415.85,12.646,12.646,0,0,1,3.915,3.885,3.038,3.038,0,0,1,.2.375,3.071,3.071,0,0,1-2.781,4.372h-8.906c-.043,0-.086.008-.129.011a1.223,1.223,0,0,0,0,2.443c.092.006.183.017.273.031H270.66c.079-.016.159-.029.239-.039a1.236,1.236,0,0,0,1.094-1.164,10.19,10.19,0,0,0-.513-3.3,14.859,14.859,0,0,0-7.968-9.531,14.324,14.324,0,0,0-6.311-1.422" fill="#fff"/>
        <path id="Path_458" data-name="Path 458" d="M33.458,13.963l1.346-.814H22.831V7.4l0-.02,0-.02V7.251H22.82a4.3,4.3,0,0,0-8.6,0h-.011v.112l0,.021,0,.021V17.44l0,.021,0,.021V44.195l0,.021a4.314,4.314,0,0,0,8.628,0l0-.021V21.771l3.442,0,.123-.236a19.489,19.489,0,0,1,3.021-4.277,18.769,18.769,0,0,1,4.041-3.3" fill="#fff"/>
        <path id="Path_459" data-name="Path 459" d="M18.519,51.6a7.393,7.393,0,0,1-7.385-7.384c0-.037,0-.075,0-.113V17.574c0-.038,0-.076,0-.113s0-.074,0-.113V7.5c0-.038,0-.075,0-.112s0-.075,0-.114V7.252a3.038,3.038,0,0,1,.032-.44,7.373,7.373,0,0,1,14.7,0,3.13,3.13,0,0,1,.03.436v.025c0,.037,0,.072,0,.108s0,.07,0,.107v2.587h8.9a3.07,3.07,0,0,1,1.588,5.7l-1.346.814a15.733,15.733,0,0,0-3.38,2.76,16.472,16.472,0,0,0-2.546,3.6L29,23.19a3.07,3.07,0,0,1-2.725,1.655H25.9V44.109c0,.036,0,.072,0,.107A7.392,7.392,0,0,1,18.519,51.6m-1.243-7.329a1.244,1.244,0,0,0,2.485,0v-22.5a3.069,3.069,0,0,1,3.07-3.07h1.646a22.567,22.567,0,0,1,1.774-2.482H22.833a3.072,3.072,0,0,1-3.072-3.07V7.516c0-.056-.009-.112-.01-.169a1.232,1.232,0,0,0-2.464,0c0,.057-.005.113-.01.169V44.195c0,.025,0,.05,0,.076" fill="#fff"/>
        <path id="Path_460" data-name="Path 460" d="M10.191,14.079A18.877,18.877,0,0,0,6.15,17.467,20.019,20.019,0,0,0,3.129,21.86l-.058.114h8.761V13.35h-.466Z" fill="#fff"/>
        <path id="Path_461" data-name="Path 461" d="M11.832,25.045H3.07A3.07,3.07,0,0,1,.331,20.589l.057-.115a23.175,23.175,0,0,1,3.484-5.066,21.97,21.97,0,0,1,4.7-3.937l1.174-.729a3.065,3.065,0,0,1,1.62-.462h.467a3.069,3.069,0,0,1,3.07,3.07v8.625a3.069,3.069,0,0,1-3.07,3.07" fill="#fff"/>
        <path id="Path_462" data-name="Path 462" d="M184.5,29.366h-.045a17.3,17.3,0,0,0-1.367-6.014,17.961,17.961,0,0,0-9.472-9.5,17.283,17.283,0,0,0-6.948-1.415,17.554,17.554,0,0,0-7.019,1.415,17.894,17.894,0,0,0-9.5,9.5,17.448,17.448,0,0,0-1.414,6.971,17.255,17.255,0,0,0,1.415,6.948,18.552,18.552,0,0,0,3.821,5.671,17.987,17.987,0,0,0,5.675,3.849,17.549,17.549,0,0,0,7.019,1.414,18.482,18.482,0,0,0,2.429-.08,4.314,4.314,0,0,0,0-8.628c-.071,0-.138.017-.208.021V39.5a10.189,10.189,0,0,1-5.823-.664,9.941,9.941,0,0,1-2.982-2,9.153,9.153,0,0,1-2-2.919,8.917,8.917,0,0,1-.724-3.572,9.073,9.073,0,0,1,.725-3.6,9.276,9.276,0,0,1,4.973-4.96,9.269,9.269,0,0,1,7.162,0,9.585,9.585,0,0,1,2.931,2,9.393,9.393,0,0,1,2,2.97,9.12,9.12,0,0,1,.724,3.558v3.177h0v.151c0,.014,0,.026,0,.04s0,.027,0,.041v10.05c0,.014,0,.026,0,.04s0,.027,0,.041v.373h.037a4.29,4.29,0,0,0,8.545,0h.042v-13.9c0-.014,0-.027,0-.041Z" fill="#fff"/>
        <path id="Path_463" data-name="Path 463" d="M167.451,51.278h-.782a20.6,20.6,0,0,1-8.24-1.667,21.034,21.034,0,0,1-6.636-4.507,21.615,21.615,0,0,1-4.454-6.6,20.887,20.887,0,0,1,0-16.365,20.963,20.963,0,0,1,11.093-11.095,20.625,20.625,0,0,1,8.24-1.667,20.316,20.316,0,0,1,8.174,1.671,21.022,21.022,0,0,1,11.063,11.09,20.246,20.246,0,0,1,1.581,6.514,3.111,3.111,0,0,1,.085.72v.852c0,.037,0,.074,0,.106v13.9a3.082,3.082,0,0,1-.145.937,7.365,7.365,0,0,1-12.784,3.521,7.367,7.367,0,0,1-5.349,2.51,16.207,16.207,0,0,1-1.844.085m-.782-35.766a14.509,14.509,0,0,0-5.8,1.162,14.83,14.83,0,0,0-7.9,7.9,14.386,14.386,0,0,0-1.162,5.752,14.2,14.2,0,0,0,1.159,5.719,15.491,15.491,0,0,0,3.189,4.739,14.911,14.911,0,0,0,4.712,3.191,14.483,14.483,0,0,0,5.8,1.163h.447a12.081,12.081,0,0,0,1.615-.059,3,3,0,0,1,.367-.022,1.243,1.243,0,0,0,.11-2.482c-.055,0-.11.009-.166.012s-.1,0-.142,0a13.01,13.01,0,0,1-10.964-3.555,12.222,12.222,0,0,1-2.665-3.892,11.981,11.981,0,0,1-.978-4.794,12.15,12.15,0,0,1,.973-4.806,12.354,12.354,0,0,1,16.188-6.565,12.621,12.621,0,0,1,3.869,2.634,12.452,12.452,0,0,1,2.653,3.937,12.165,12.165,0,0,1,.971,4.752v3.08c0,.036,0,.073,0,.11V43.746c.01.061.018.122.023.184a1.22,1.22,0,0,0,2.433,0c.007-.07.016-.14.028-.209V30.388c0-.037,0-.074,0-.106v-.391a2.943,2.943,0,0,1-.041-.367,14.272,14.272,0,0,0-1.119-4.952,14.895,14.895,0,0,0-7.883-7.9,14.231,14.231,0,0,0-5.719-1.158M169.1,36.427a7.343,7.343,0,0,1,3.71,1V33.835c0-.053,0-.1,0-.154s0-.088,0-.132c0-.02,0-.04,0-.06V30.313a6.029,6.029,0,0,0-.477-2.353,6.32,6.32,0,0,0-1.344-2,6.485,6.485,0,0,0-1.993-1.354,6.242,6.242,0,0,0-4.728.013,6.208,6.208,0,0,0-3.352,3.342,6.043,6.043,0,0,0-.478,2.39A5.883,5.883,0,0,0,160.9,32.7a6.1,6.1,0,0,0,1.327,1.947,6.915,6.915,0,0,0,2.067,1.38,7.141,7.141,0,0,0,4.232.426,2.986,2.986,0,0,1,.411-.021c.049,0,.1,0,.156,0" fill="#fff"/>
        <path id="Path_464" data-name="Path 464" d="M81.779,65.1a2.218,2.218,0,0,0,.769,1.526,2.57,2.57,0,0,0,1.713.558,2.668,2.668,0,0,0,1.258-.293,2.248,2.248,0,0,0,.883-.822h2.246a4.872,4.872,0,0,1-1.705,2.274,4.4,4.4,0,0,1-2.625.81,4.708,4.708,0,0,1-1.843-.354,4.514,4.514,0,0,1-1.51-1.045,4.828,4.828,0,0,1-1.013-5.067,4.519,4.519,0,0,1,.948-1.485,4.881,4.881,0,0,1,1.546-1.115,4.267,4.267,0,0,1,1.783-.391,4.622,4.622,0,0,1,2.173.529,5.017,5.017,0,0,1,1.717,1.49,4,4,0,0,1,.639,1.294,5.928,5.928,0,0,1,.207,1.644c0,.048,0,.123-.008.223s-.008.176-.008.224Zm4.94-1.652a2.543,2.543,0,0,0-.9-1.363,2.6,2.6,0,0,0-1.591-.468,2.391,2.391,0,0,0-1.49.5,2.453,2.453,0,0,0-.887,1.327Z" fill="#fff"/>
        <path id="Path_465" data-name="Path 465" d="M100.3,60.684V57.071h2.051v11.85H100.3v-.733a4.515,4.515,0,0,1-1.3.729,4.462,4.462,0,0,1-1.481.24,4.69,4.69,0,0,1-1.6-.269,4.23,4.23,0,0,1-1.343-.781,4.763,4.763,0,0,1-1.249-1.657,4.829,4.829,0,0,1-.436-2.03,4.721,4.721,0,0,1,1.538-3.483,4.2,4.2,0,0,1,1.4-.88,4.707,4.707,0,0,1,1.685-.3,4.812,4.812,0,0,1,1.53.224,3.963,3.963,0,0,1,1.253.7m-.089,3.8a2.668,2.668,0,0,0-.728-1.913,2.409,2.409,0,0,0-1.819-.765,2.47,2.47,0,0,0-1.836.782,2.579,2.579,0,0,0-.761,1.863,2.532,2.532,0,0,0,.765,1.884,2.637,2.637,0,0,0,1.929.753,2.3,2.3,0,0,0,1.738-.757,2.6,2.6,0,0,0,.712-1.847" fill="#fff"/>
        <path id="Path_466" data-name="Path 466" d="M109.2,59.057h-2.035V57.071H109.2Zm-2.035.911H109.2V68.92h-2.035Z" fill="#fff"/>
        <path id="Path_467" data-name="Path 467" d="M120.581,63.15a2.47,2.47,0,0,0-2.336-1.4,2.32,2.32,0,0,0-1.77.765,2.71,2.71,0,0,0-.712,1.921,2.627,2.627,0,0,0,.728,1.9,2.43,2.43,0,0,0,1.827.757,2.55,2.55,0,0,0,1.408-.362,2.161,2.161,0,0,0,.839-1.086h2.222A4.585,4.585,0,0,1,121.2,68.22a4.458,4.458,0,0,1-2.864.936,4.648,4.648,0,0,1-4.363-2.925,4.659,4.659,0,0,1-.358-1.779,4.754,4.754,0,0,1,.326-1.766,4.516,4.516,0,0,1,.96-1.481,4.793,4.793,0,0,1,1.579-1.123,4.679,4.679,0,0,1,1.888-.383,4.507,4.507,0,0,1,2.849.936A4.386,4.386,0,0,1,122.8,63.15Z" fill="#fff"/>
        <path id="Path_468" data-name="Path 468" d="M129.369,59.057h-2.035V57.071h2.035Zm-2.034.911h2.035V68.92h-2.035Z" fill="#fff"/>
        <path id="Path_469" data-name="Path 469" d="M133.763,64.4a4.733,4.733,0,0,1,.346-1.795,4.535,4.535,0,0,1,1.005-1.509,4.831,4.831,0,0,1,1.522-1.038,4.438,4.438,0,0,1,1.758-.362,4.853,4.853,0,0,1,1.787.321,4.683,4.683,0,0,1,1.5.965,4.787,4.787,0,0,1,1.083,1.559,4.508,4.508,0,0,1,.382,1.81,5.07,5.07,0,0,1-.333,1.872,4.588,4.588,0,0,1-1,1.53,4.467,4.467,0,0,1-1.521,1.046,4.805,4.805,0,0,1-1.856.354,4.424,4.424,0,0,1-3.353-1.432,4.92,4.92,0,0,1-.985-1.543,4.79,4.79,0,0,1-.334-1.778m2.149-.016a2.769,2.769,0,0,0,.684,1.974,2.422,2.422,0,0,0,1.855.728,2.387,2.387,0,0,0,1.844-.745,2.842,2.842,0,0,0,.687-2.006,2.536,2.536,0,0,0-.72-1.86,2.631,2.631,0,0,0-3.642.008,2.632,2.632,0,0,0-.708,1.9" fill="#fff"/>
        <path id="Path_470" data-name="Path 470" d="M149.584,59.968v1.017a2.949,2.949,0,0,1,1.046-.9,2.991,2.991,0,0,1,1.347-.293,3.685,3.685,0,0,1,1.689.366,3.109,3.109,0,0,1,1.2,1.1,3.405,3.405,0,0,1,.444,1.111,9.283,9.283,0,0,1,.134,1.819V68.92h-2.083V64.957a5.1,5.1,0,0,0-.415-2.466,1.553,1.553,0,0,0-1.433-.667,1.624,1.624,0,0,0-1.5.736,5.091,5.091,0,0,0-.456,2.527V68.92h-2.011V59.968Z" fill="#fff"/>
        <path id="Path_471" data-name="Path 471" d="M161.962,65.1a2.218,2.218,0,0,0,.769,1.526,2.57,2.57,0,0,0,1.713.558,2.668,2.668,0,0,0,1.258-.293,2.248,2.248,0,0,0,.883-.822h2.246a4.872,4.872,0,0,1-1.7,2.274,4.4,4.4,0,0,1-2.625.81,4.708,4.708,0,0,1-1.843-.354,4.514,4.514,0,0,1-1.51-1.045,4.83,4.83,0,0,1-1.335-3.305,4.827,4.827,0,0,1,.322-1.762,4.519,4.519,0,0,1,.948-1.485,4.881,4.881,0,0,1,1.546-1.115,4.274,4.274,0,0,1,1.783-.391,4.622,4.622,0,0,1,2.173.529,5.017,5.017,0,0,1,1.717,1.49,4,4,0,0,1,.639,1.294,5.928,5.928,0,0,1,.207,1.644c0,.048,0,.123-.008.223s-.008.176-.008.224Zm4.94-1.652a2.543,2.543,0,0,0-.9-1.363,2.6,2.6,0,0,0-1.591-.468,2.391,2.391,0,0,0-1.49.5,2.453,2.453,0,0,0-.887,1.327Z" fill="#fff"/>
        <path id="Path_472" data-name="Path 472" d="M174.885,65.95v.122a1.487,1.487,0,0,0,.3.965.963.963,0,0,0,.782.37,1.035,1.035,0,0,0,.744-.277.935.935,0,0,0,.289-.708.99.99,0,0,0-.212-.655,2.234,2.234,0,0,0-.756-.517q-.309-.138-.912-.383a3.669,3.669,0,0,1-.773-.382,2.485,2.485,0,0,1-.969-2.051,2.579,2.579,0,0,1,.794-1.912,2.643,2.643,0,0,1,1.925-.782,2.567,2.567,0,0,1,1.892.692,2.832,2.832,0,0,1,.761,1.937h-1.872V62.32a.962.962,0,0,0-.224-.675.8.8,0,0,0-.622-.245.777.777,0,0,0-.582.24.828.828,0,0,0-.232.6q0,.585,1.2,1.09.318.131.489.2a3.827,3.827,0,0,1,1.578,1.119,3.087,3.087,0,0,1-.423,3.687,2.945,2.945,0,0,1-2.132.818,2.7,2.7,0,0,1-2.088-.863,3.6,3.6,0,0,1-.866-2.336Z" fill="#fff"/>
        <path id="Path_473" data-name="Path 473" d="M124.037,17.168v15.4a7.009,7.009,0,0,1-.58,2.842,7.861,7.861,0,0,1-1.57,2.342,7.344,7.344,0,0,1-2.3,1.592,7.222,7.222,0,0,1-5.663,0A7.624,7.624,0,0,1,110,35.407a7.017,7.017,0,0,1-.578-2.842v-15.4h-8.625v15.4A15.752,15.752,0,0,0,102.04,38.8a16.029,16.029,0,0,0,8.463,8.5,15.519,15.519,0,0,0,6.2,1.248,15.7,15.7,0,0,0,6.224-1.247,15.968,15.968,0,0,0,8.488-8.5,15.76,15.76,0,0,0,1.246-6.233v-15.4Z" fill="#681c78"/>
        <path id="Path_474" data-name="Path 474" d="M104.028,28.522H108.6a7.529,7.529,0,0,1,.819.047v-11.4H100.8V29.261a6.985,6.985,0,0,1,3.232-.739" fill="#297226"/>
        <path id="Path_475" data-name="Path 475" d="M124.037,17.168V29.3a2.308,2.308,0,0,1,.7.6,2.97,2.97,0,0,1,.443-.043,2.682,2.682,0,0,1,1.1.221c.2-.015.4-.03.616-.03h1.19c.357-.008.712,0,1.067,0a6.963,6.963,0,0,1,3.268-.762c.084,0,.162.009.245.012V17.168Z" fill="#297226"/>
        <path id="Path_476" data-name="Path 476" d="M109.424,28.251a4.314,4.314,0,1,1-4.314-4.314,4.314,4.314,0,0,1,4.314,4.314" fill="#253116"/>
        <path id="Path_477" data-name="Path 477" d="M132.662,28.251a4.314,4.314,0,1,1-4.314-4.314,4.314,4.314,0,0,1,4.314,4.314" fill="#253116"/>
        <path id="Path_478" data-name="Path 478" d="M109.424,17.165a4.314,4.314,0,1,1-4.314-4.314,4.314,4.314,0,0,1,4.314,4.314" fill="#297226"/>
        <path id="Path_479" data-name="Path 479" d="M132.662,17.165a4.314,4.314,0,1,1-4.314-4.314,4.314,4.314,0,0,1,4.314,4.314" fill="#297226"/>
        <path id="Path_480" data-name="Path 480" d="M197.512,63.093l.08-35.62a7,7,0,0,1,.58-2.841,7.867,7.867,0,0,1,1.57-2.342,7.327,7.327,0,0,1,2.3-1.592,7.224,7.224,0,0,1,5.664,0,7.617,7.617,0,0,1,3.921,3.934,7.01,7.01,0,0,1,.579,2.841v15.4h8.624v-15.4a15.744,15.744,0,0,0-1.245-6.232,16.02,16.02,0,0,0-8.462-8.5,15.523,15.523,0,0,0-6.2-1.248A15.682,15.682,0,0,0,198.7,12.74a15.953,15.953,0,0,0-8.487,8.5,15.737,15.737,0,0,0-1.246,6.232l-.081,35.62Z" fill="#157fc4"/>
        <path id="Path_481" data-name="Path 481" d="M220.513,30.917a7.063,7.063,0,0,1-2.911.6h-4.573a7.53,7.53,0,0,1-.82-.048V44.195h8.625V31.3a2.345,2.345,0,0,1-.321-.383" fill="#db0063"/>
        <path id="Path_482" data-name="Path 482" d="M196.549,29.812l-.218.021a7.823,7.823,0,0,1-1.594.159h-1.19c-.357.008-.711,0-1.066,0a6.97,6.97,0,0,1-3.269.762c-.084,0-.162-.01-.245-.012l-.08,33.676h8.625l.08-32.876a2.546,2.546,0,0,1-1.043-1.73" fill="#db0063"/>
        <path id="Path_483" data-name="Path 483" d="M212.206,44.232a4.314,4.314,0,1,1,4.314,4.314,4.314,4.314,0,0,1-4.314-4.314" fill="#db0063"/>
        <path id="Path_484" data-name="Path 484" d="M188.887,64.454A4.314,4.314,0,0,1,193.2,60.14c2.383,0,4.314,2.953,4.314,4.314a4.314,4.314,0,0,1-8.628,0" fill="#db0063"/>
        <path id="Path_485" data-name="Path 485" d="M212.206,31.788A4.314,4.314,0,1,1,216.52,36.1a4.314,4.314,0,0,1-4.314-4.314" fill="#50236b"/>
        <path id="Path_486" data-name="Path 486" d="M188.967,31.788a4.314,4.314,0,1,1,4.314,4.314,4.314,4.314,0,0,1-4.314-4.314" fill="#50236b"/>
        <path id="Path_487" data-name="Path 487" d="M70.541,64.309a4.314,4.314,0,1,1-4.314-4.314,4.314,4.314,0,0,1,4.314,4.314" fill="#2ea193"/>
        <path id="Path_488" data-name="Path 488" d="M96.263,23.438a17.991,17.991,0,0,0-3.844-5.674,18.552,18.552,0,0,0-5.662-3.823,17.792,17.792,0,0,0-13.9,0,18.461,18.461,0,0,0-5.688,3.823,17.989,17.989,0,0,0-3.843,5.674,17.464,17.464,0,0,0-1.412,6.971V49.6h8.624V30.409a9.122,9.122,0,0,1,.727-3.606,9.28,9.28,0,0,1,12.144-4.927,9.423,9.423,0,0,1,2.938,1.975A9.32,9.32,0,0,1,88.324,26.8a9.312,9.312,0,0,1,0,7.212,9.183,9.183,0,0,1-4.91,4.927c-.993.43-4.222.509-5.328.555,0,1.275-.266,6.753-.255,8.621a13.973,13.973,0,0,0,1.986.173,17.219,17.219,0,0,0,6.939-1.415,18.189,18.189,0,0,0,9.506-9.519,17.845,17.845,0,0,0,0-13.919" fill="#ff9d00"/>
        <path id="Path_489" data-name="Path 489" d="M61.912,30.7V64.237h8.624V30.793c-2.875.092-5.749-.14-8.624-.093" fill="#2ea193"/>
        <path id="Path_490" data-name="Path 490" d="M70.541,33.808a4.314,4.314,0,1,1-4.314-4.314,4.314,4.314,0,0,1,4.314,4.314" fill="#ec4115"/>
        <path id="Path_491" data-name="Path 491" d="M82.4,43.811A4.314,4.314,0,1,1,78.088,39.5,4.314,4.314,0,0,1,82.4,43.811" fill="#ff9d00"/>
        <rect id="Rectangle_57" data-name="Rectangle 57" width="8.624" height="4.314" transform="translate(61.915 29.494)" fill="#ec4115"/>
        <rect id="Rectangle_58" data-name="Rectangle 58" width="8.624" height="36.965" transform="translate(137.135 7.251)" fill="#157fc4"/>
        <path id="Path_492" data-name="Path 492" d="M145.761,7.384a4.314,4.314,0,1,1-4.314-4.314,4.314,4.314,0,0,1,4.314,4.314" fill="#157fc4"/>
        <path id="Path_493" data-name="Path 493" d="M145.761,44.216a4.314,4.314,0,1,1-4.314-4.314,4.314,4.314,0,0,1,4.314,4.314" fill="#157fc4"/>
        <path id="Path_494" data-name="Path 494" d="M233.527,44.216a4.314,4.314,0,1,1-4.314-4.314,4.314,4.314,0,0,1,4.314,4.314" fill="#41a736"/>
        <rect id="Rectangle_59" data-name="Rectangle 59" width="8.624" height="36.965" transform="translate(224.901 7.251)" fill="#41a736"/>
        <path id="Path_495" data-name="Path 495" d="M229.348,13.149c-.011.177.3.349.26.508a1.97,1.97,0,0,1-.117.268,1.892,1.892,0,0,1,.033.569c-.137,1.353-.107,2.734-.229,4.1a14.769,14.769,0,0,0-.365,3.064c.005.037,0,.075.008.112l8.028.008.123-.237a19.54,19.54,0,0,1,3.021-4.276,18.793,18.793,0,0,1,4.041-3.3l1.347-.814Z" fill="#e50019"/>
        <path id="Path_496" data-name="Path 496" d="M233.527,7.384a4.314,4.314,0,1,1-4.314-4.314,4.314,4.314,0,0,1,4.314,4.314" fill="#41a736"/>
        <rect id="Rectangle_60" data-name="Rectangle 60" width="4.515" height="8.62" transform="translate(229.012 13.149)" fill="#691b0b"/>
        <path id="Path_497" data-name="Path 497" d="M233.527,17.461a4.314,4.314,0,1,1-4.314-4.314,4.314,4.314,0,0,1,4.314,4.314" fill="#691b0b"/>
        <path id="Path_498" data-name="Path 498" d="M47.294,17.662a4.314,4.314,0,1,1-4.314-4.314,4.314,4.314,0,0,1,4.314,4.314" fill="#41a736"/>
        <path id="Path_499" data-name="Path 499" d="M38.291,14.539a17.724,17.724,0,0,0-9.509,9.474,17.538,17.538,0,0,0-1.4,6.971V44.6H36V30.984a8.954,8.954,0,0,1,.725-3.581,9.161,9.161,0,0,1,2-2.927A9.673,9.673,0,0,1,41.678,22.5a9.2,9.2,0,0,1,1.719-.542l-.417-8.608a12.791,12.791,0,0,0-4.689,1.191" fill="#41a736"/>
        <path id="Path_500" data-name="Path 500" d="M36.005,30.114A4.314,4.314,0,1,1,31.691,25.8a4.314,4.314,0,0,1,4.314,4.314" fill="#297226"/>
        <path id="Path_501" data-name="Path 501" d="M36.005,44.6a4.314,4.314,0,1,1-4.314-4.314A4.314,4.314,0,0,1,36.005,44.6" fill="#41a736"/>
        <path id="Path_502" data-name="Path 502" d="M57.771,44.216A4.314,4.314,0,1,1,53.457,39.9a4.314,4.314,0,0,1,4.314,4.314" fill="#e50019"/>
        <rect id="Rectangle_61" data-name="Rectangle 61" width="8.624" height="26.732" transform="translate(49.145 17.484)" fill="#e50019"/>
        <path id="Path_503" data-name="Path 503" d="M57.771,17.483a4.314,4.314,0,1,1-4.314-4.314,4.314,4.314,0,0,1,4.314,4.314" fill="#e50019"/>
        <path id="Path_504" data-name="Path 504" d="M57.771,7.36a4.289,4.289,0,1,1-4.289-4.289A4.289,4.289,0,0,1,57.771,7.36" fill="#681c78"/>
        <path id="Path_505" data-name="Path 505" d="M274.425,25.964a17.923,17.923,0,0,0-9.57-11.421,17.834,17.834,0,0,0-14.624-.317,18.335,18.335,0,0,0-5.681,3.823,18,18,0,0,0-3.826,5.675,17.54,17.54,0,0,0-1.4,6.97,17.346,17.346,0,0,0,1.406,6.947,18.344,18.344,0,0,0,3.823,5.672,18.079,18.079,0,0,0,5.683,3.849,17.429,17.429,0,0,0,6.97,1.414c.659,0,1.718-.086,2.37-.158-.03-1.87-.131-7.64-.131-7.64s-.511-.972-.822-.935c-.349.04-1.054.109-1.417.109a9.142,9.142,0,0,1-3.7-.746,8.966,8.966,0,0,1-2.923-2.033,9.882,9.882,0,0,1-1.934-2.953,8.864,8.864,0,0,1-.7-3.5,9.177,9.177,0,0,1,.7-3.576A9.331,9.331,0,0,1,250.6,24.2a9.5,9.5,0,0,1,2.932-2.016,9.3,9.3,0,0,1,8.522.636,9.59,9.59,0,0,1,2.99,2.97h-8.956v8.624H270.75l4.314-4.322a13.2,13.2,0,0,0-.639-4.126" fill="#ff9d00"/>
        <path id="Path_506" data-name="Path 506" d="M271.277,27.14a2.9,2.9,0,0,1-.283-1.151,2.3,2.3,0,0,1-.312-.194c-.058-.019-.119-.034-.174-.056.011.016.023.031.034.048H255.786v8.625h15.5a2.7,2.7,0,0,1-.152-.868c-.011-2.158-.028-4.275.143-6.4" fill="#2ea193"/>
        <path id="Path_507" data-name="Path 507" d="M266.436,30.089A4.314,4.314,0,1,1,270.75,34.4a4.314,4.314,0,0,1-4.314-4.314" fill="#681c78"/>
        <path id="Path_508" data-name="Path 508" d="M251.772,30.089a4.314,4.314,0,1,1,4.314,4.314,4.314,4.314,0,0,1-4.314-4.314" fill="#2ea193"/>
        <path id="Path_509" data-name="Path 509" d="M255,44.1a4.314,4.314,0,1,1,4.314,4.314A4.314,4.314,0,0,1,255,44.1" fill="#ff9d00"/>
        <path id="Path_510" data-name="Path 510" d="M265.023,25.763c1.17,1.79.884,4.93,1.994,6.483.672.841,3.733,2.141,3.733,2.141V25.763s-4.128.012-5.727,0" fill="#681c78"/>
        <rect id="Rectangle_62" data-name="Rectangle 62" width="8.624" height="36.965" transform="translate(14.207 7.251)" fill="#db0063"/>
        <path id="Path_511" data-name="Path 511" d="M22.833,7.384A4.314,4.314,0,1,1,18.519,3.07a4.314,4.314,0,0,1,4.314,4.314" fill="#db0063"/>
        <path id="Path_512" data-name="Path 512" d="M22.833,44.216A4.314,4.314,0,1,1,18.519,39.9a4.314,4.314,0,0,1,4.314,4.314" fill="#db0063"/>
        <path id="Path_513" data-name="Path 513" d="M18.654,13.149c-.011.177.3.349.26.508a1.971,1.971,0,0,1-.117.268,1.892,1.892,0,0,1,.033.569c-.137,1.353-.107,2.734-.229,4.1a14.769,14.769,0,0,0-.365,3.064c0,.037,0,.075.008.112l8.028.008.123-.237a19.54,19.54,0,0,1,3.021-4.276,18.817,18.817,0,0,1,4.041-3.3l1.347-.814Z" fill="#157fc4"/>
        <rect id="Rectangle_63" data-name="Rectangle 63" width="4.515" height="8.62" transform="translate(18.318 13.149)" fill="#50236b"/>
        <path id="Path_514" data-name="Path 514" d="M22.833,17.461a4.314,4.314,0,1,1-4.314-4.314,4.314,4.314,0,0,1,4.314,4.314" fill="#50236b"/>
        <path id="Path_515" data-name="Path 515" d="M11.365,13.35l-1.175.729a18.955,18.955,0,0,0-4.041,3.388A20.1,20.1,0,0,0,3.128,21.86l-.058.115h8.762V13.35Z" fill="#681c78"/>
        <path id="Path_516" data-name="Path 516" d="M183.089,23.352a17.952,17.952,0,0,0-9.472-9.5,17.279,17.279,0,0,0-6.948-1.415,17.574,17.574,0,0,0-7.019,1.414,17.894,17.894,0,0,0-9.5,9.5,17.431,17.431,0,0,0-1.415,6.971,17.255,17.255,0,0,0,1.415,6.948,18.555,18.555,0,0,0,3.822,5.671,17.972,17.972,0,0,0,5.674,3.849,17.553,17.553,0,0,0,7.019,1.414,18.482,18.482,0,0,0,2.429-.08c-.03-2.447-.161-6.505-.208-8.625a10.193,10.193,0,0,1-5.824-.664,9.953,9.953,0,0,1-2.982-2,9.17,9.17,0,0,1-2-2.919,8.934,8.934,0,0,1-.724-3.572,9.091,9.091,0,0,1,.725-3.6,9.285,9.285,0,0,1,4.973-4.96,9.269,9.269,0,0,1,7.162,0,9.59,9.59,0,0,1,2.932,2,9.407,9.407,0,0,1,2,2.97,9.107,9.107,0,0,1,.726,3.6V44.225H184.5v-13.9a17.438,17.438,0,0,0-1.414-6.971" fill="#ec4115"/>
        <path id="Path_517" data-name="Path 517" d="M175.879,30.438v6.921a2.336,2.336,0,0,1,0,.783v6.083H184.5V30.438Z" fill="#2ea193"/>
        <path id="Path_518" data-name="Path 518" d="M184.5,33.68a4.314,4.314,0,1,1-4.314-4.314A4.314,4.314,0,0,1,184.5,33.68" fill="#691b0b"/>
        <rect id="Rectangle_64" data-name="Rectangle 64" width="8.624" height="4.123" transform="translate(175.877 29.366)" fill="#691b0b"/>
        <path id="Path_519" data-name="Path 519" d="M184.5,43.811a4.314,4.314,0,1,1-4.314-4.314,4.314,4.314,0,0,1,4.314,4.314" fill="#2ea193"/>
        <path id="Path_520" data-name="Path 520" d="M173.412,43.811A4.314,4.314,0,1,1,169.1,39.5a4.314,4.314,0,0,1,4.314,4.314" fill="#ec4115"/>
      </g>
    </g>
  </g>
</svg>
